<?xml version="1.0" encoding="UTF-8"?>
<svg width="19px" height="18px" viewBox="0 0 19 18" version="1.1" xmlns="http://www.w3.org/2000/svg" xmlns:xlink="http://www.w3.org/1999/xlink">
    <title>Person / User / user / 16</title>
    <g id="Symbols" stroke="none" stroke-width="1" fill="none" fill-rule="evenodd">
        <g id="Telenor-header---Plans-Selected" transform="translate(-1390.000000, -31.000000)" fill="#000000">
            <g id="header" transform="translate(0.000000, -32.000000)">
                <g id="main-header" transform="translate(0.000000, 32.000000)">
                    <g id="cart" transform="translate(1360.000000, 0.000000)">
                        <g id="Person-/-User-/-user-/-16" transform="translate(30.000000, 30.000000)">
                            <path d="M6.25,18.75 C6.94035594,18.75 7.5,18.1903559 7.5,17.5 C7.5,16.8096441 6.94035594,16.25 6.25,16.25 C5.55964406,16.25 5,16.8096441 5,17.5 C5,18.1903559 5.55964406,18.75 6.25,18.75 Z M15,18.75 C15.6903559,18.75 16.25,18.1903559 16.25,17.5 C16.25,16.8096441 15.6903559,16.25 15,16.25 C14.3096441,16.25 13.75,16.8096441 13.75,17.5 C13.75,18.1903559 14.3096441,18.75 15,18.75 Z M17.5,4.375 L3.6375,4.375 L3.125,1.75 C3.06470398,1.45429799 2.80172548,1.24391518 2.5,1.24987135 L0,1.24987135 L0,2.5 L1.9875,2.5 L4.375,14.5 C4.43529602,14.795702 4.69827452,15.0060848 5,15.0001286 L16.25,15.0001286 L16.25,13.75 L5.5125,13.75 L5,11.25 L16.25,11.25 C16.5479124,11.257281 16.8095287,11.0532204 16.875,10.7625 L18.125,5.1375 C18.1674407,4.94958517 18.1208501,4.75259871 17.9987252,4.60360638 C17.8766004,4.45461404 17.6925897,4.37026698 17.5,4.375 Z M15.75,10 L4.7625,10 L3.8875,5.625 L16.71875,5.625 L15.75,10 Z" id="Fill"></path>
                        </g>
                    </g>
                </g>
            </g>
        </g>
    </g>
</svg>