<?xml version="1.0" encoding="UTF-8"?>
<svg width="28px" height="26px" viewBox="0 0 28 26" version="1.1" xmlns="http://www.w3.org/2000/svg" xmlns:xlink="http://www.w3.org/1999/xlink">
    <title>Path</title>
    <g id="Page-1" stroke="none" stroke-width="1" fill="none" fill-rule="evenodd">
        <g id="09-Catalogue-Viewport---Filtered---414" transform="translate(-25.000000, -17.000000)" fill="#000000" fill-rule="nonzero">
            <g id="navbar">
                <path d="M39.1520556,24.9461824 C39.5525471,25.0094767 39.6332431,24.9250843 39.6870405,24.5423047 C39.8185452,23.6501569 40.0815545,22.7821212 40.4671023,21.9683378 C40.9931209,20.8832932 41.8239913,19.6897441 42.9955783,18.8880167 C44.1761315,18.1194434 45.4762344,17.5558231 46.839101,17.2212676 C47.7596336,17.0163148 48.7040762,16.9530205 49.6425413,17.0343988 C51.328192,17.1881135 52.2606796,17.6733696 52.7299122,18.3002842 C52.8853268,18.5082511 52.9779778,18.7584142 52.998899,19.0206333 C53.0138427,19.3340906 52.8793493,19.7409823 52.4310379,20.138832 C51.9857153,20.5396957 51.0741489,21.0128957 49.8158884,21.4378715 C48.5098079,21.8749034 46.7255288,22.3390614 44.9442383,22.7519811 C43.9131222,22.9870741 42.893961,23.2824474 41.8957211,23.6350869 C40.7181566,24.0389646 40.3624963,25.2204576 41.0947381,25.5821391 C41.919631,25.9890309 42.6877378,26.498399 43.3871035,27.0951735 C44.5078819,27.9933494 45.5330206,29.0090717 46.4415982,30.1242564 C47.5504216,31.4896042 49.3645883,34.0937113 50.0131453,36.622468 C50.736421,39.3983738 50.2851209,42.0296069 48.7279861,42.7650261 C47.2007388,43.4883891 45.1654052,42.4455407 43.7367864,40.9475764 C42.3798974,39.5340044 41.4294773,37.8612272 40.5328546,35.2932883 C39.7587703,33.0719609 39.4479411,29.8680653 39.4479411,28.1862462 C39.4479411,27.6256398 39.4479411,27.5080933 39.4628848,27.0017392 C39.5136934,26.5616933 38.3361289,26.1939837 37.0718909,27.0168092 C35.6313171,27.9511532 34.2236195,29.6420144 33.3897603,30.6275965 C33.0281225,31.0586004 32.53498,31.688529 32.0149389,32.3485978 C31.3275281,33.2166335 30.5713763,34.1208374 29.8809768,34.6271915 C28.846872,35.3716527 27.176165,35.6941521 26.0015892,34.8562565 C25.3500434,34.3890845 25.0003605,33.5029647 25.0003605,32.6017749 C24.9913943,31.9808883 25.1497977,31.3690437 25.4606269,30.8295354 C25.8611183,30.1363125 26.4947317,29.3918513 27.5198703,28.5388857 C28.8707819,27.4809672 30.3651531,26.6219735 31.955164,25.9890309 C34.5344487,24.9431684 37.3109903,24.614641 39.1520556,24.9461824 Z" id="Path"></path>
            </g>
        </g>
    </g>
</svg>